<mxfile host="app.diagrams.net" agent="Mozilla/5.0 (Windows NT 10.0; Win64; x64) AppleWebKit/537.36 (KHTML, like Gecko) Chrome/133.0.0.0 Safari/537.36" version="26.0.16">
  <diagram id="C5RBs43oDa-KdzZeNtuy" name="Page-1">
    <mxGraphModel dx="1687" dy="878" grid="1" gridSize="10" guides="1" tooltips="1" connect="1" arrows="1" fold="1" page="1" pageScale="1" pageWidth="827" pageHeight="1169" math="0" shadow="0">
      <root>
        <mxCell id="WIyWlLk6GJQsqaUBKTNV-0" />
        <mxCell id="WIyWlLk6GJQsqaUBKTNV-1" parent="WIyWlLk6GJQsqaUBKTNV-0" />
        <mxCell id="WIyWlLk6GJQsqaUBKTNV-2" value="" style="rounded=0;html=1;jettySize=auto;orthogonalLoop=1;fontSize=11;endArrow=block;endFill=0;endSize=8;strokeWidth=1;shadow=0;labelBackgroundColor=none;edgeStyle=orthogonalEdgeStyle;entryX=1;entryY=0.5;entryDx=0;entryDy=0;" parent="WIyWlLk6GJQsqaUBKTNV-1" source="WIyWlLk6GJQsqaUBKTNV-3" target="ePrDVCT97FzitQ4nwVUh-1" edge="1">
          <mxGeometry relative="1" as="geometry">
            <mxPoint x="130" y="130" as="targetPoint" />
          </mxGeometry>
        </mxCell>
        <mxCell id="WIyWlLk6GJQsqaUBKTNV-3" value="Начало" style="rounded=1;whiteSpace=wrap;html=1;fontSize=12;glass=0;strokeWidth=1;shadow=0;" parent="WIyWlLk6GJQsqaUBKTNV-1" vertex="1">
          <mxGeometry x="310" y="35" width="120" height="40" as="geometry" />
        </mxCell>
        <mxCell id="WIyWlLk6GJQsqaUBKTNV-4" value="Yes" style="rounded=0;html=1;jettySize=auto;orthogonalLoop=1;fontSize=11;endArrow=block;endFill=0;endSize=8;strokeWidth=1;shadow=0;labelBackgroundColor=none;edgeStyle=orthogonalEdgeStyle;" parent="WIyWlLk6GJQsqaUBKTNV-1" target="WIyWlLk6GJQsqaUBKTNV-10" edge="1">
          <mxGeometry y="20" relative="1" as="geometry">
            <mxPoint as="offset" />
            <mxPoint x="210" y="360" as="sourcePoint" />
          </mxGeometry>
        </mxCell>
        <mxCell id="WIyWlLk6GJQsqaUBKTNV-5" value="No" style="edgeStyle=orthogonalEdgeStyle;rounded=0;html=1;jettySize=auto;orthogonalLoop=1;fontSize=11;endArrow=block;endFill=0;endSize=8;strokeWidth=1;shadow=0;labelBackgroundColor=none;" parent="WIyWlLk6GJQsqaUBKTNV-1" target="WIyWlLk6GJQsqaUBKTNV-7" edge="1">
          <mxGeometry y="10" relative="1" as="geometry">
            <mxPoint as="offset" />
            <mxPoint x="260" y="320" as="sourcePoint" />
          </mxGeometry>
        </mxCell>
        <mxCell id="WIyWlLk6GJQsqaUBKTNV-8" value="No" style="rounded=0;html=1;jettySize=auto;orthogonalLoop=1;fontSize=11;endArrow=block;endFill=0;endSize=8;strokeWidth=1;shadow=0;labelBackgroundColor=none;edgeStyle=orthogonalEdgeStyle;" parent="WIyWlLk6GJQsqaUBKTNV-1" target="WIyWlLk6GJQsqaUBKTNV-11" edge="1">
          <mxGeometry x="0.3333" y="20" relative="1" as="geometry">
            <mxPoint as="offset" />
            <mxPoint x="220" y="470" as="sourcePoint" />
          </mxGeometry>
        </mxCell>
        <mxCell id="WIyWlLk6GJQsqaUBKTNV-9" value="Yes" style="edgeStyle=orthogonalEdgeStyle;rounded=0;html=1;jettySize=auto;orthogonalLoop=1;fontSize=11;endArrow=block;endFill=0;endSize=8;strokeWidth=1;shadow=0;labelBackgroundColor=none;" parent="WIyWlLk6GJQsqaUBKTNV-1" source="WIyWlLk6GJQsqaUBKTNV-10" edge="1">
          <mxGeometry y="10" relative="1" as="geometry">
            <mxPoint as="offset" />
            <mxPoint x="320" y="430" as="targetPoint" />
          </mxGeometry>
        </mxCell>
        <mxCell id="ePrDVCT97FzitQ4nwVUh-0" value="Конец" style="rounded=1;whiteSpace=wrap;html=1;fontSize=12;glass=0;strokeWidth=1;shadow=0;" vertex="1" parent="WIyWlLk6GJQsqaUBKTNV-1">
          <mxGeometry x="480" y="35" width="120" height="40" as="geometry" />
        </mxCell>
        <mxCell id="ePrDVCT97FzitQ4nwVUh-1" value="Ввод:&amp;nbsp;&lt;div&gt;axis_count&lt;/div&gt;&lt;div&gt;x_axis&lt;/div&gt;&lt;div&gt;y_axis&lt;/div&gt;&lt;div&gt;x&lt;/div&gt;" style="shape=parallelogram;perimeter=parallelogramPerimeter;whiteSpace=wrap;html=1;fixedSize=1;" vertex="1" parent="WIyWlLk6GJQsqaUBKTNV-1">
          <mxGeometry x="30" y="10" width="160" height="90" as="geometry" />
        </mxCell>
        <mxCell id="ePrDVCT97FzitQ4nwVUh-5" value="j=1; j&amp;lt;axis_count; j++" style="shape=hexagon;perimeter=hexagonPerimeter2;whiteSpace=wrap;html=1;fixedSize=1;" vertex="1" parent="WIyWlLk6GJQsqaUBKTNV-1">
          <mxGeometry x="200" y="300" width="170" height="80" as="geometry" />
        </mxCell>
        <mxCell id="ePrDVCT97FzitQ4nwVUh-6" value="i=n-1; i&amp;gt;=j; i--" style="shape=hexagon;perimeter=hexagonPerimeter2;whiteSpace=wrap;html=1;fixedSize=1;" vertex="1" parent="WIyWlLk6GJQsqaUBKTNV-1">
          <mxGeometry x="200" y="460" width="170" height="80" as="geometry" />
        </mxCell>
        <mxCell id="ePrDVCT97FzitQ4nwVUh-8" value="" style="endArrow=none;dashed=1;html=1;dashPattern=1 3;strokeWidth=2;rounded=0;" edge="1" parent="WIyWlLk6GJQsqaUBKTNV-1">
          <mxGeometry width="50" height="50" relative="1" as="geometry">
            <mxPoint x="50" y="120" as="sourcePoint" />
            <mxPoint x="50" y="120" as="targetPoint" />
            <Array as="points">
              <mxPoint x="280" y="120" />
              <mxPoint x="530" y="120" />
              <mxPoint x="530" y="720" />
              <mxPoint x="430" y="720" />
              <mxPoint x="50" y="720" />
            </Array>
          </mxGeometry>
        </mxCell>
        <mxCell id="ePrDVCT97FzitQ4nwVUh-9" value="" style="rounded=0;html=1;jettySize=auto;orthogonalLoop=1;fontSize=11;endArrow=block;endFill=0;endSize=8;strokeWidth=1;shadow=0;labelBackgroundColor=none;edgeStyle=orthogonalEdgeStyle;entryX=0;entryY=0.5;entryDx=0;entryDy=0;exitX=0.5;exitY=1;exitDx=0;exitDy=0;" edge="1" parent="WIyWlLk6GJQsqaUBKTNV-1" source="ePrDVCT97FzitQ4nwVUh-1" target="ePrDVCT97FzitQ4nwVUh-21">
          <mxGeometry relative="1" as="geometry">
            <mxPoint x="140" y="80" as="sourcePoint" />
            <mxPoint x="140" y="130" as="targetPoint" />
            <Array as="points">
              <mxPoint x="110" y="185" />
            </Array>
          </mxGeometry>
        </mxCell>
        <mxCell id="ePrDVCT97FzitQ4nwVUh-10" value="Нахождение&amp;nbsp;&lt;div&gt;раздельных&amp;nbsp;&lt;/div&gt;&lt;div&gt;разностей&amp;nbsp;&lt;/div&gt;" style="text;html=1;align=center;verticalAlign=middle;whiteSpace=wrap;rounded=0;" vertex="1" parent="WIyWlLk6GJQsqaUBKTNV-1">
          <mxGeometry x="440" y="120" width="90" height="60" as="geometry" />
        </mxCell>
        <mxCell id="ePrDVCT97FzitQ4nwVUh-12" value="" style="rounded=0;html=1;jettySize=auto;orthogonalLoop=1;fontSize=11;endArrow=block;endFill=0;endSize=8;strokeWidth=1;shadow=0;labelBackgroundColor=none;edgeStyle=orthogonalEdgeStyle;exitX=1;exitY=0.5;exitDx=0;exitDy=0;entryX=0;entryY=0.5;entryDx=0;entryDy=0;" edge="1" parent="WIyWlLk6GJQsqaUBKTNV-1" source="ePrDVCT97FzitQ4nwVUh-5" target="ePrDVCT97FzitQ4nwVUh-26">
          <mxGeometry relative="1" as="geometry">
            <mxPoint x="343" y="340" as="sourcePoint" />
            <mxPoint x="600" y="340" as="targetPoint" />
            <Array as="points" />
          </mxGeometry>
        </mxCell>
        <mxCell id="ePrDVCT97FzitQ4nwVUh-13" value="" style="rounded=0;html=1;jettySize=auto;orthogonalLoop=1;fontSize=11;endArrow=block;endFill=0;endSize=8;strokeWidth=1;shadow=0;labelBackgroundColor=none;edgeStyle=orthogonalEdgeStyle;exitX=0.5;exitY=1;exitDx=0;exitDy=0;entryX=0.5;entryY=0;entryDx=0;entryDy=0;" edge="1" parent="WIyWlLk6GJQsqaUBKTNV-1" source="ePrDVCT97FzitQ4nwVUh-5" target="ePrDVCT97FzitQ4nwVUh-6">
          <mxGeometry relative="1" as="geometry">
            <mxPoint x="380" y="350" as="sourcePoint" />
            <mxPoint x="620" y="350" as="targetPoint" />
          </mxGeometry>
        </mxCell>
        <mxCell id="ePrDVCT97FzitQ4nwVUh-14" value="a[i] = (a[i] - a[i-1]) / (x_axis[i] - x_axis[i-j]);" style="rounded=0;whiteSpace=wrap;html=1;" vertex="1" parent="WIyWlLk6GJQsqaUBKTNV-1">
          <mxGeometry x="141.25" y="585" width="287.5" height="80" as="geometry" />
        </mxCell>
        <mxCell id="ePrDVCT97FzitQ4nwVUh-15" value="Конец" style="text;html=1;align=center;verticalAlign=middle;whiteSpace=wrap;rounded=0;" vertex="1" parent="WIyWlLk6GJQsqaUBKTNV-1">
          <mxGeometry x="414" y="310" width="60" height="30" as="geometry" />
        </mxCell>
        <mxCell id="ePrDVCT97FzitQ4nwVUh-16" value="Конец" style="text;html=1;align=center;verticalAlign=middle;whiteSpace=wrap;rounded=0;" vertex="1" parent="WIyWlLk6GJQsqaUBKTNV-1">
          <mxGeometry x="110" y="410" width="60" height="30" as="geometry" />
        </mxCell>
        <mxCell id="ePrDVCT97FzitQ4nwVUh-17" value="" style="rounded=0;html=1;jettySize=auto;orthogonalLoop=1;fontSize=11;endArrow=block;endFill=0;endSize=8;strokeWidth=1;shadow=0;labelBackgroundColor=none;edgeStyle=orthogonalEdgeStyle;exitX=0;exitY=0.5;exitDx=0;exitDy=0;entryX=0;entryY=0.5;entryDx=0;entryDy=0;" edge="1" parent="WIyWlLk6GJQsqaUBKTNV-1" source="ePrDVCT97FzitQ4nwVUh-6" target="ePrDVCT97FzitQ4nwVUh-5">
          <mxGeometry relative="1" as="geometry">
            <mxPoint x="295" y="390" as="sourcePoint" />
            <mxPoint x="295" y="500" as="targetPoint" />
          </mxGeometry>
        </mxCell>
        <mxCell id="ePrDVCT97FzitQ4nwVUh-18" value="" style="rounded=0;html=1;jettySize=auto;orthogonalLoop=1;fontSize=11;endArrow=block;endFill=0;endSize=8;strokeWidth=1;shadow=0;labelBackgroundColor=none;edgeStyle=orthogonalEdgeStyle;exitX=0.5;exitY=1;exitDx=0;exitDy=0;entryX=0.5;entryY=0;entryDx=0;entryDy=0;" edge="1" parent="WIyWlLk6GJQsqaUBKTNV-1" source="ePrDVCT97FzitQ4nwVUh-6" target="ePrDVCT97FzitQ4nwVUh-14">
          <mxGeometry relative="1" as="geometry">
            <mxPoint x="295" y="390" as="sourcePoint" />
            <mxPoint x="285" y="570" as="targetPoint" />
          </mxGeometry>
        </mxCell>
        <mxCell id="ePrDVCT97FzitQ4nwVUh-19" value="" style="rounded=0;html=1;jettySize=auto;orthogonalLoop=1;fontSize=11;endArrow=block;endFill=0;endSize=8;strokeWidth=1;shadow=0;labelBackgroundColor=none;edgeStyle=orthogonalEdgeStyle;exitX=1;exitY=0.5;exitDx=0;exitDy=0;entryX=1;entryY=0.5;entryDx=0;entryDy=0;" edge="1" parent="WIyWlLk6GJQsqaUBKTNV-1" source="ePrDVCT97FzitQ4nwVUh-14" target="ePrDVCT97FzitQ4nwVUh-6">
          <mxGeometry relative="1" as="geometry">
            <mxPoint x="295" y="580" as="sourcePoint" />
            <mxPoint x="295" y="640" as="targetPoint" />
            <Array as="points">
              <mxPoint x="470" y="625" />
              <mxPoint x="470" y="500" />
            </Array>
          </mxGeometry>
        </mxCell>
        <mxCell id="ePrDVCT97FzitQ4nwVUh-21" value="Создание:&amp;nbsp;&lt;div&gt;a = y_axus&lt;/div&gt;&lt;div&gt;&amp;nbsp;(вектор результатов&amp;nbsp;&lt;/div&gt;&lt;div&gt;раздельных разностей)&lt;/div&gt;" style="shape=parallelogram;perimeter=parallelogramPerimeter;whiteSpace=wrap;html=1;fixedSize=1;" vertex="1" parent="WIyWlLk6GJQsqaUBKTNV-1">
          <mxGeometry x="185" y="140" width="185" height="90" as="geometry" />
        </mxCell>
        <mxCell id="ePrDVCT97FzitQ4nwVUh-23" value="" style="rounded=0;html=1;jettySize=auto;orthogonalLoop=1;fontSize=11;endArrow=block;endFill=0;endSize=8;strokeWidth=1;shadow=0;labelBackgroundColor=none;edgeStyle=orthogonalEdgeStyle;entryX=0.465;entryY=-0.012;entryDx=0;entryDy=0;exitX=0.5;exitY=1;exitDx=0;exitDy=0;entryPerimeter=0;" edge="1" parent="WIyWlLk6GJQsqaUBKTNV-1" source="ePrDVCT97FzitQ4nwVUh-21" target="ePrDVCT97FzitQ4nwVUh-5">
          <mxGeometry relative="1" as="geometry">
            <mxPoint x="120" y="110" as="sourcePoint" />
            <mxPoint x="225" y="195" as="targetPoint" />
            <Array as="points">
              <mxPoint x="279" y="230" />
            </Array>
          </mxGeometry>
        </mxCell>
        <mxCell id="ePrDVCT97FzitQ4nwVUh-24" value="" style="endArrow=none;dashed=1;html=1;dashPattern=1 3;strokeWidth=2;rounded=0;" edge="1" parent="WIyWlLk6GJQsqaUBKTNV-1">
          <mxGeometry width="50" height="50" relative="1" as="geometry">
            <mxPoint x="570" y="120" as="sourcePoint" />
            <mxPoint x="570" y="120" as="targetPoint" />
            <Array as="points">
              <mxPoint x="800" y="120" />
              <mxPoint x="950" y="120" />
              <mxPoint x="950" y="420" />
              <mxPoint x="960" y="720" />
              <mxPoint x="950" y="720" />
              <mxPoint x="570" y="720" />
            </Array>
          </mxGeometry>
        </mxCell>
        <mxCell id="ePrDVCT97FzitQ4nwVUh-25" value="Нахождение значения полинома в точке" style="text;html=1;align=center;verticalAlign=middle;whiteSpace=wrap;rounded=0;" vertex="1" parent="WIyWlLk6GJQsqaUBKTNV-1">
          <mxGeometry x="570" y="120" width="90" height="80" as="geometry" />
        </mxCell>
        <mxCell id="ePrDVCT97FzitQ4nwVUh-26" value="Создание:&amp;nbsp;&lt;div&gt;result = a[0]&lt;/div&gt;&lt;div&gt;term = 1.0&lt;/div&gt;&lt;div&gt;&amp;nbsp;(результат и&amp;nbsp;&lt;/div&gt;&lt;div&gt;значение произведений&amp;nbsp;&lt;/div&gt;&lt;div&gt;скобок с &quot;x-ами&quot;&lt;span style=&quot;background-color: transparent; color: light-dark(rgb(0, 0, 0), rgb(255, 255, 255));&quot;&gt;)&lt;/span&gt;&lt;/div&gt;" style="shape=parallelogram;perimeter=parallelogramPerimeter;whiteSpace=wrap;html=1;fixedSize=1;" vertex="1" parent="WIyWlLk6GJQsqaUBKTNV-1">
          <mxGeometry x="590" y="292.5" width="210" height="95" as="geometry" />
        </mxCell>
        <mxCell id="ePrDVCT97FzitQ4nwVUh-29" value="i=1; i&amp;lt;axis_count; i++" style="shape=hexagon;perimeter=hexagonPerimeter2;whiteSpace=wrap;html=1;fixedSize=1;" vertex="1" parent="WIyWlLk6GJQsqaUBKTNV-1">
          <mxGeometry x="690" y="430" width="170" height="80" as="geometry" />
        </mxCell>
        <mxCell id="ePrDVCT97FzitQ4nwVUh-30" value="" style="rounded=0;html=1;jettySize=auto;orthogonalLoop=1;fontSize=11;endArrow=block;endFill=0;endSize=8;strokeWidth=1;shadow=0;labelBackgroundColor=none;edgeStyle=orthogonalEdgeStyle;exitX=0.5;exitY=1;exitDx=0;exitDy=0;entryX=0.5;entryY=0;entryDx=0;entryDy=0;" edge="1" parent="WIyWlLk6GJQsqaUBKTNV-1" source="ePrDVCT97FzitQ4nwVUh-26" target="ePrDVCT97FzitQ4nwVUh-29">
          <mxGeometry relative="1" as="geometry">
            <mxPoint x="380" y="350" as="sourcePoint" />
            <mxPoint x="610" y="350" as="targetPoint" />
            <Array as="points" />
          </mxGeometry>
        </mxCell>
        <mxCell id="ePrDVCT97FzitQ4nwVUh-31" value="" style="rounded=0;html=1;jettySize=auto;orthogonalLoop=1;fontSize=11;endArrow=block;endFill=0;endSize=8;strokeWidth=1;shadow=0;labelBackgroundColor=none;edgeStyle=orthogonalEdgeStyle;exitX=0.5;exitY=1;exitDx=0;exitDy=0;" edge="1" parent="WIyWlLk6GJQsqaUBKTNV-1" source="ePrDVCT97FzitQ4nwVUh-29" target="ePrDVCT97FzitQ4nwVUh-32">
          <mxGeometry relative="1" as="geometry">
            <mxPoint x="295" y="390" as="sourcePoint" />
            <mxPoint x="695" y="590" as="targetPoint" />
          </mxGeometry>
        </mxCell>
        <mxCell id="ePrDVCT97FzitQ4nwVUh-32" value="&lt;div&gt;&amp;nbsp;term = term * (x - x_axis[i-1]);&lt;/div&gt;&lt;div style=&quot;text-align: left;&quot;&gt;&amp;nbsp; &amp;nbsp; &amp;nbsp; &amp;nbsp; result += a[i] * term;&lt;/div&gt;" style="rounded=0;whiteSpace=wrap;html=1;" vertex="1" parent="WIyWlLk6GJQsqaUBKTNV-1">
          <mxGeometry x="687.5" y="560" width="175" height="120" as="geometry" />
        </mxCell>
        <mxCell id="ePrDVCT97FzitQ4nwVUh-33" value="" style="rounded=0;html=1;jettySize=auto;orthogonalLoop=1;fontSize=11;endArrow=block;endFill=0;endSize=8;strokeWidth=1;shadow=0;labelBackgroundColor=none;edgeStyle=orthogonalEdgeStyle;exitX=0;exitY=0.5;exitDx=0;exitDy=0;entryX=0;entryY=0.5;entryDx=0;entryDy=0;" edge="1" parent="WIyWlLk6GJQsqaUBKTNV-1" source="ePrDVCT97FzitQ4nwVUh-32" target="ePrDVCT97FzitQ4nwVUh-29">
          <mxGeometry relative="1" as="geometry">
            <mxPoint x="439" y="635" as="sourcePoint" />
            <mxPoint x="380" y="510" as="targetPoint" />
            <Array as="points">
              <mxPoint x="650" y="620" />
              <mxPoint x="650" y="470" />
            </Array>
          </mxGeometry>
        </mxCell>
        <mxCell id="ePrDVCT97FzitQ4nwVUh-34" value="" style="rounded=0;html=1;jettySize=auto;orthogonalLoop=1;fontSize=11;endArrow=block;endFill=0;endSize=8;strokeWidth=1;shadow=0;labelBackgroundColor=none;edgeStyle=orthogonalEdgeStyle;exitX=1;exitY=0.5;exitDx=0;exitDy=0;entryX=1;entryY=0.25;entryDx=0;entryDy=0;" edge="1" parent="WIyWlLk6GJQsqaUBKTNV-1" source="ePrDVCT97FzitQ4nwVUh-29" target="ePrDVCT97FzitQ4nwVUh-35">
          <mxGeometry relative="1" as="geometry">
            <mxPoint x="968" y="470" as="sourcePoint" />
            <mxPoint x="930" y="290" as="targetPoint" />
          </mxGeometry>
        </mxCell>
        <mxCell id="ePrDVCT97FzitQ4nwVUh-35" value="Вывод: result" style="shape=document;whiteSpace=wrap;html=1;boundedLbl=1;" vertex="1" parent="WIyWlLk6GJQsqaUBKTNV-1">
          <mxGeometry x="680" y="35" width="120" height="80" as="geometry" />
        </mxCell>
        <mxCell id="ePrDVCT97FzitQ4nwVUh-36" value="" style="rounded=0;html=1;jettySize=auto;orthogonalLoop=1;fontSize=11;endArrow=block;endFill=0;endSize=8;strokeWidth=1;shadow=0;labelBackgroundColor=none;edgeStyle=orthogonalEdgeStyle;entryX=1;entryY=0.5;entryDx=0;entryDy=0;" edge="1" parent="WIyWlLk6GJQsqaUBKTNV-1" target="ePrDVCT97FzitQ4nwVUh-0">
          <mxGeometry relative="1" as="geometry">
            <mxPoint x="680" y="55" as="sourcePoint" />
            <mxPoint x="190" y="65" as="targetPoint" />
            <Array as="points">
              <mxPoint x="680" y="55" />
            </Array>
          </mxGeometry>
        </mxCell>
      </root>
    </mxGraphModel>
  </diagram>
</mxfile>
